<?xml version="1.0" encoding="UTF-8" standalone="no"?>
<svg
   xmlns:dc="http://purl.org/dc/elements/1.1/"
   xmlns:cc="http://creativecommons.org/ns#"
   xmlns:rdf="http://www.w3.org/1999/02/22-rdf-syntax-ns#"
   xmlns:svg="http://www.w3.org/2000/svg"
   xmlns="http://www.w3.org/2000/svg"
   xmlns:sodipodi="http://sodipodi.sourceforge.net/DTD/sodipodi-0.dtd"
   xmlns:inkscape="http://www.inkscape.org/namespaces/inkscape"
   width="54"
   height="38.38607"
   viewBox="0 0 14.287499 10.156315"
   version="1.1"
   id="svg8378"
   inkscape:version="1.0 (4035a4f, 2020-05-01)"
   sodipodi:docname="ysnp_full.svg">
  <defs
     id="defs8372" />
  <sodipodi:namedview
     id="base"
     pagecolor="#ffffff"
     bordercolor="#666666"
     borderopacity="1.0"
     inkscape:pageopacity="0.0"
     inkscape:pageshadow="2"
     inkscape:zoom="0.67296042"
     inkscape:cx="88.71915"
     inkscape:cy="-138.95029"
     inkscape:document-units="mm"
     inkscape:current-layer="layer1"
     inkscape:document-rotation="0"
     showgrid="false"
     units="px"
     lock-margins="false"
     fit-margin-top="0"
     fit-margin-left="0"
     fit-margin-right="0"
     fit-margin-bottom="0"
     inkscape:window-width="1680"
     inkscape:window-height="1005"
     inkscape:window-x="0"
     inkscape:window-y="23"
     inkscape:window-maximized="0" />
  <metadata
     id="metadata8375">
    <rdf:RDF>
      <cc:Work
         rdf:about="">
        <dc:format>image/svg+xml</dc:format>
        <dc:type
           rdf:resource="http://purl.org/dc/dcmitype/StillImage" />
        <dc:title></dc:title>
      </cc:Work>
    </rdf:RDF>
  </metadata>
  <g
     inkscape:label="Layer 1"
     inkscape:groupmode="layer"
     id="layer1"
     transform="translate(-64.146716,-215.11895)">
    <g
       id="g8347"
       transform="matrix(0.12081209,0,0,-0.12081209,-36.778234,252.2564)">
      <g
         id="g8277">
        <g
           id="g7672">
          <g
             transform="translate(838.209,223.3325)"
             id="g1255">
            <path
               id="path1257"
               style="fill:#b14033;fill-opacity:1;fill-rule:nonzero;stroke:none"
               d="m 0,0 c -1.394,0.111 -2.737,0.914 -2.821,1.894 -0.084,0.981 31.356,45.226 39.797,57.529 8.441,12.304 8.214,13.978 8.214,13.978 l 2.822,-1.894 c 0,0 -23.8,-33.805 -33.41,-48.385 C 4.991,8.542 1.394,-0.111 0,0" />
          </g>
          <g
             transform="translate(883.1973,269.6455)"
             id="g1259">
            <path
               id="path1261"
               style="fill:#b14033;fill-opacity:1;fill-rule:nonzero;stroke:none"
               d="m 0,0 c -1.133,1.556 -2.385,3.211 -2.674,3.674 -0.16,0.255 0.059,0.59 0.286,0.842 0.118,0.107 0.242,0.222 0.367,0.348 10e-4,0.001 0.01,0.009 0.01,0.009 L -2.02,4.865 c 0.37,0.37 0.745,0.812 0.982,1.271 0.361,0.698 0.59,2.319 -0.305,2.356 -0.295,-1.163 -2.139,-2.727 -2.81,-3.265 l -24.731,31.385 -1.905,0.74 0.213,-2.066 L -5.864,3.924 C -6.497,3.535 -8.33,2.462 -9.646,2.234 c -0.13,-0.726 1.065,-1.191 2.417,-0.886 0.518,0.117 0.988,0.326 1.37,0.535 L -5.868,1.876 c -0.006,-0.003 0.006,0.004 0.023,0.015 0.091,0.05 0.182,0.101 0.262,0.15 0.299,0.153 0.749,0.329 0.937,0.116 0.367,-0.414 1.657,-1.891 2.998,-3.632 C 0.245,-3.934 1.841,-7.2 2.92,-7.848 3.508,-8.201 5.309,-6.682 5.15,-6.1 4.79,-4.774 1.596,-2.19 0,0" />
          </g>
        </g>
        <g
           id="g1263"
           transform="translate(890.5361,299.249)">
          <path
             d="m 0,0 c -0.544,-0.811 -1.838,-2.335 -2.435,-2.935 -1.592,-1.604 -3.112,-2.431 -4.012,-1.827 -0.814,0.547 -0.854,2.561 -0.196,4.387 0.341,0.949 0.966,2.584 1.649,3.602 0.802,1.194 1.73,1.025 2.603,1.735 1.302,1.059 0.518,3.622 1.258,3.124 C -0.26,7.501 1.274,5.183 0.469,3.184 0.132,2.348 0.589,0.877 0,0"
             style="fill:#b14033;fill-opacity:1;fill-rule:nonzero;stroke:none"
             id="path1265" />
        </g>
      </g>
      <g
         transform="translate(894.8379,286.8013)"
         id="g1267">
        <path
           id="path1269"
           style="fill:#b14033;fill-opacity:1;fill-rule:nonzero;stroke:none"
           d="m 0,0 c 1.458,-0.814 3.511,-1.917 6.157,-3.308 2.17,-1.56 3.257,-3.528 3.257,-5.902 0,-2.239 -0.705,-4.02 -2.112,-5.343 -1.408,-1.323 -3.231,-1.985 -5.47,-1.985 -3.054,0 -5.496,0.899 -7.327,2.698 -1.392,1.356 -2.002,2.493 -1.832,3.408 0.101,0.543 0.474,0.933 1.119,1.171 0.271,0.102 0.848,0.22 1.73,0.356 l 0.509,-0.611 c -0.17,-0.034 -0.356,-0.085 -0.559,-0.152 -0.408,-0.136 -0.458,-0.594 -0.154,-1.374 1.12,-2.918 3.189,-4.394 6.208,-4.427 1.425,0 2.596,0.441 3.512,1.323 0.915,0.882 1.373,2.036 1.373,3.46 0.034,1.832 -1.052,3.375 -3.256,4.63 -2.646,1.459 -4.648,2.527 -6.005,3.206 -2.171,1.458 -3.239,3.274 -3.205,5.445 0,1.832 0.678,3.307 2.035,4.427 1.254,1.085 2.816,1.628 4.681,1.628 2.714,0 4.834,-0.695 6.36,-2.086 C 8.175,5.512 8.684,4.664 8.549,4.02 8.447,3.544 8.057,3.206 7.378,3.002 7.31,2.968 6.75,2.866 5.699,2.697 L 5.19,3.206 C 5.359,3.273 5.547,3.324 5.75,3.358 6.157,3.494 6.208,3.884 5.902,4.529 5.529,5.343 4.809,6.055 3.74,6.666 2.672,7.276 1.662,7.582 0.712,7.582 -0.34,7.582 -1.271,7.276 -2.086,6.666 -2.9,6.055 -3.308,5.241 -3.308,4.223 -3.308,2.628 -2.205,1.221 0,0" />
      </g>
      <g
         transform="translate(929.1836,291.1094)"
         id="g1271">
        <path
           id="path1273"
           style="fill:#b14033;fill-opacity:1;fill-rule:nonzero;stroke:none"
           d="m 0,0 -0.101,-16.669 c 0,-1.33 0.254,-2.134 0.763,-2.414 0.136,-0.07 0.882,-0.139 2.239,-0.209 v -1.044 H 0.503 -2.761 c -0.987,0 -2.195,0.314 -3.623,0.943 -2.007,0.91 -3.878,2.274 -5.611,4.093 -2.416,2.588 -4.014,4.705 -4.796,6.349 v -5.693 -1.619 c 0,-1.289 0.305,-2.124 0.916,-2.507 0.407,-0.244 1.288,-0.418 2.646,-0.522 v -1.044 h -10.686 v 1.044 c 1.391,0.034 2.29,0.191 2.697,0.472 0.611,0.42 0.915,1.242 0.915,2.466 l 0.103,16.53 c 0,0.315 -0.018,0.595 -0.051,0.84 v 0.945 0.367 c -0.034,0.454 -0.289,0.576 -0.764,0.367 -0.339,-0.139 -0.543,-0.226 -0.61,-0.261 V 3.27 c 0.266,0.174 0.581,0.348 0.946,0.522 0.931,0.452 1.628,0.644 2.094,0.575 1.264,-0.14 1.861,-1.097 1.794,-2.873 v -1.515 c 0.238,-1.706 1.622,-4.543 4.152,-8.512 1.743,-2.716 2.734,-4.249 2.974,-4.596 1.299,-1.846 2.614,-3.169 3.948,-3.97 0.58,-0.348 1.075,-0.522 1.486,-0.522 0.752,0 1.127,0.418 1.127,1.254 V 0.071 c 0,1.149 -0.241,1.915 -0.724,2.298 -0.483,0.383 -1.309,0.609 -2.482,0.679 V 4.197 H 3.206 V 2.938 C 2.053,2.903 1.477,2.886 1.477,2.886 c 0,0 -0.248,-0.15 -0.739,-0.447 C 0.246,2.142 0,1.329 0,0" />
      </g>
      <g
         transform="translate(941.375,292.4224)"
         id="g1275">
        <path
           id="path1277"
           style="fill:#b14033;fill-opacity:1;fill-rule:nonzero;stroke:none"
           d="m 0,0 c 5.003,0 9.073,-4.219 9.073,-9.406 0,-5.187 -4.07,-9.355 -9.073,-9.407 -3.682,-0.039 -4.115,1.464 -4.161,3.359 0.055,2.64 0.79,2.479 0.79,6.163 0,2.74 -0.378,3.673 -0.849,4.69 l 10e-4,-0.001 C -5.434,-0.722 -2.167,0 0,0 m -0.053,-21.347 c 6.768,0 12.328,4.988 12.328,11.941 0,6.952 -5.506,12.609 -12.275,12.609 -1.441,0 -2.844,-0.286 -4.176,-0.784 0.001,10e-4 0.01,0.013 0.01,0.013 L -4.236,2.395 C -5.152,2.047 -6.04,1.616 -6.861,1.045 L -7.187,0.819 v -4.252 h 0.001 v -11.946 l -0.001,-0.001 v -4.252 l 0.001,0.002 v -21.401 c -0.157,-0.007 -0.318,-0.011 -0.487,-0.013 -1.159,-0.006 -1.325,0.178 -1.612,0.178 -0.287,0 -0.236,-1.884 0,-1.884 0.233,0 0.847,-0.137 2.099,-0.139 v -4.416 h 1.099 v -0.059 h 6.15 c 0,0 2.372,-0.134 2.886,0 0.514,0.133 0.267,2.354 0,2.183 -0.267,-0.172 -4.518,0 -4.518,0 h -2.597 v 2.443 c 0.313,0.014 0.648,0.024 1.001,0.026 1.609,0.006 1.84,-0.178 2.237,-0.178 0.399,0 0.327,1.884 0,1.884 -0.326,0 -1.183,0.14 -2.947,0.14 -0.107,0 -0.194,-0.002 -0.291,-0.003 v 2.056 c 0.484,-10e-4 0.953,0.008 1.249,0.04 0.864,0.093 1.45,0.087 1.936,-0.184 0.484,-0.272 0.382,2.065 0,2.275 -0.383,0.21 -1.503,0.093 -2.44,0.055 -0.216,-0.009 -0.475,-0.006 -0.745,0.002 v 16.134 c 1.259,-0.584 2.721,-0.856 4.113,-0.856" />
      </g>
    </g>
  </g>
</svg>
